<svg width="293" height="173" viewBox="0 0 293 173" fill="none" xmlns="http://www.w3.org/2000/svg">
<line x1="2.5" y1="140.5" x2="2.5" y2="1.5" stroke="#667080" stroke-width="3" stroke-linecap="round"/>
<line x1="279.518" y1="141.991" x2="2.49736" y2="141.503" stroke="#667080" stroke-width="3" stroke-linecap="round"/>
<path d="M17.8133 154.364C17.7537 153.86 17.5117 153.469 17.0875 153.19C16.6632 152.912 16.1429 152.773 15.5264 152.773C15.0757 152.773 14.6812 152.846 14.3432 152.991C14.0084 153.137 13.7466 153.338 13.5577 153.593C13.3721 153.848 13.2793 154.138 13.2793 154.463C13.2793 154.735 13.3439 154.969 13.4731 155.164C13.6057 155.356 13.7748 155.517 13.9802 155.646C14.1857 155.772 14.4012 155.877 14.6266 155.96C14.8519 156.039 15.0591 156.104 15.248 156.153L16.2821 156.432C16.5472 156.501 16.8422 156.598 17.167 156.72C17.4952 156.843 17.8084 157.01 18.1067 157.222C18.4083 157.431 18.6569 157.7 18.8524 158.028C19.048 158.356 19.1457 158.759 19.1457 159.236C19.1457 159.786 19.0016 160.283 18.7132 160.727C18.4282 161.171 18.0105 161.524 17.4604 161.786C16.9135 162.048 16.2489 162.179 15.4668 162.179C14.7376 162.179 14.1062 162.061 13.5726 161.826C13.0423 161.591 12.6247 161.263 12.3197 160.842C12.0181 160.421 11.8474 159.932 11.8077 159.375H13.0804C13.1135 159.759 13.2428 160.078 13.4682 160.33C13.6969 160.578 13.9852 160.764 14.3332 160.886C14.6846 161.006 15.0624 161.065 15.4668 161.065C15.9374 161.065 16.36 160.989 16.7345 160.837C17.109 160.681 17.4057 160.465 17.6244 160.19C17.8432 159.912 17.9525 159.587 17.9525 159.216C17.9525 158.878 17.8581 158.603 17.6692 158.391C17.4802 158.179 17.2317 158.006 16.9234 157.874C16.6152 157.741 16.2821 157.625 15.9241 157.526L14.6713 157.168C13.8758 156.939 13.2461 156.612 12.7821 156.188C12.3181 155.764 12.0861 155.209 12.0861 154.523C12.0861 153.953 12.2402 153.455 12.5484 153.031C12.86 152.604 13.2776 152.272 13.8013 152.037C14.3283 151.798 14.9166 151.679 15.5662 151.679C16.2224 151.679 16.8058 151.797 17.3162 152.032C17.8266 152.264 18.231 152.582 18.5293 152.987C18.8309 153.391 18.99 153.85 19.0065 154.364H17.8133ZM25.5463 158.878V154.364H26.7196V162H25.5463V160.707H25.4668C25.2878 161.095 25.0094 161.425 24.6315 161.697C24.2537 161.965 23.7764 162.099 23.1997 162.099C22.7224 162.099 22.2982 161.995 21.927 161.786C21.5558 161.574 21.2641 161.256 21.052 160.832C20.8399 160.404 20.7338 159.866 20.7338 159.216V154.364H21.9071V159.136C21.9071 159.693 22.0629 160.137 22.3744 160.469C22.6893 160.8 23.0903 160.966 23.5776 160.966C23.8692 160.966 24.1659 160.891 24.4675 160.742C24.7724 160.593 25.0276 160.364 25.2331 160.056C25.4419 159.748 25.5463 159.355 25.5463 158.878ZM29.7619 157.406V162H28.5886V154.364H29.7221V155.557H29.8215C30.0005 155.169 30.2723 154.857 30.6369 154.622C31.0015 154.384 31.4721 154.264 32.0488 154.264C32.5658 154.264 33.0183 154.37 33.406 154.582C33.7938 154.791 34.0954 155.109 34.3109 155.537C34.5263 155.961 34.634 156.498 34.634 157.148V162H33.4607V157.227C33.4607 156.627 33.305 156.16 32.9934 155.825C32.6818 155.487 32.2543 155.318 31.7107 155.318C31.3362 155.318 31.0015 155.399 30.7065 155.562C30.4148 155.724 30.1845 155.961 30.0154 156.273C29.8464 156.584 29.7619 156.962 29.7619 157.406Z" fill="#667080"/>
<path d="M261.813 154.364C261.754 153.86 261.512 153.469 261.087 153.19C260.663 152.912 260.143 152.773 259.526 152.773C259.076 152.773 258.681 152.846 258.343 152.991C258.008 153.137 257.747 153.338 257.558 153.593C257.372 153.848 257.279 154.138 257.279 154.463C257.279 154.735 257.344 154.969 257.473 155.164C257.606 155.356 257.775 155.517 257.98 155.646C258.186 155.772 258.401 155.877 258.627 155.96C258.852 156.039 259.059 156.104 259.248 156.153L260.282 156.432C260.547 156.501 260.842 156.598 261.167 156.72C261.495 156.843 261.808 157.01 262.107 157.222C262.408 157.431 262.657 157.7 262.852 158.028C263.048 158.356 263.146 158.759 263.146 159.236C263.146 159.786 263.002 160.283 262.713 160.727C262.428 161.171 262.011 161.524 261.46 161.786C260.913 162.048 260.249 162.179 259.467 162.179C258.738 162.179 258.106 162.061 257.573 161.826C257.042 161.591 256.625 161.263 256.32 160.842C256.018 160.421 255.847 159.932 255.808 159.375H257.08C257.114 159.759 257.243 160.078 257.468 160.33C257.697 160.578 257.985 160.764 258.333 160.886C258.685 161.006 259.062 161.065 259.467 161.065C259.937 161.065 260.36 160.989 260.735 160.837C261.109 160.681 261.406 160.465 261.624 160.19C261.843 159.912 261.953 159.587 261.953 159.216C261.953 158.878 261.858 158.603 261.669 158.391C261.48 158.179 261.232 158.006 260.923 157.874C260.615 157.741 260.282 157.625 259.924 157.526L258.671 157.168C257.876 156.939 257.246 156.612 256.782 156.188C256.318 155.764 256.086 155.209 256.086 154.523C256.086 153.953 256.24 153.455 256.548 153.031C256.86 152.604 257.278 152.272 257.801 152.037C258.328 151.798 258.917 151.679 259.566 151.679C260.222 151.679 260.806 151.797 261.316 152.032C261.827 152.264 262.231 152.582 262.529 152.987C262.831 153.391 262.99 153.85 263.007 154.364H261.813ZM266.981 162.179C266.497 162.179 266.058 162.088 265.663 161.906C265.269 161.72 264.956 161.453 264.724 161.105C264.492 160.754 264.376 160.33 264.376 159.832C264.376 159.395 264.462 159.04 264.634 158.768C264.807 158.493 265.037 158.278 265.325 158.122C265.614 157.966 265.932 157.85 266.28 157.774C266.631 157.695 266.984 157.632 267.339 157.585C267.803 157.526 268.179 157.481 268.467 157.451C268.759 157.418 268.971 157.363 269.104 157.287C269.24 157.211 269.308 157.078 269.308 156.889V156.849C269.308 156.359 269.173 155.978 268.905 155.706C268.64 155.434 268.237 155.298 267.697 155.298C267.137 155.298 266.698 155.421 266.379 155.666C266.061 155.911 265.837 156.173 265.708 156.452L264.595 156.054C264.793 155.59 265.059 155.229 265.39 154.97C265.725 154.708 266.089 154.526 266.484 154.423C266.882 154.317 267.273 154.264 267.657 154.264C267.902 154.264 268.184 154.294 268.502 154.354C268.824 154.41 269.134 154.528 269.432 154.707C269.734 154.886 269.984 155.156 270.183 155.517C270.382 155.878 270.481 156.362 270.481 156.969V162H269.308V160.966H269.248C269.168 161.132 269.036 161.309 268.85 161.498C268.665 161.687 268.418 161.848 268.11 161.98C267.801 162.113 267.425 162.179 266.981 162.179ZM267.16 161.125C267.624 161.125 268.015 161.034 268.333 160.852C268.655 160.669 268.897 160.434 269.059 160.146C269.225 159.857 269.308 159.554 269.308 159.236V158.162C269.258 158.222 269.149 158.276 268.98 158.326C268.814 158.372 268.622 158.414 268.403 158.45C268.187 158.483 267.977 158.513 267.771 158.54C267.569 158.563 267.405 158.583 267.279 158.599C266.974 158.639 266.689 158.704 266.424 158.793C266.162 158.879 265.95 159.01 265.788 159.186C265.629 159.358 265.549 159.594 265.549 159.892C265.549 160.3 265.7 160.608 266.002 160.817C266.306 161.022 266.693 161.125 267.16 161.125ZM275.664 154.364V155.358H271.706V154.364H275.664ZM272.86 152.534H274.033V159.812C274.033 160.144 274.081 160.393 274.177 160.558C274.276 160.721 274.402 160.83 274.555 160.886C274.711 160.939 274.875 160.966 275.047 160.966C275.176 160.966 275.282 160.959 275.365 160.946C275.448 160.929 275.514 160.916 275.564 160.906L275.803 161.96C275.723 161.99 275.612 162.02 275.47 162.05C275.327 162.083 275.146 162.099 274.928 162.099C274.596 162.099 274.271 162.028 273.953 161.886C273.638 161.743 273.377 161.526 273.168 161.234C272.962 160.943 272.86 160.575 272.86 160.131V152.534Z" fill="#667080"/>
<path d="M226.245 162V151.818H232.35V152.912H227.478V156.352H231.893V157.446H227.478V162H226.245ZM233.941 162V154.364H235.074V155.517H235.154C235.293 155.139 235.545 154.833 235.91 154.597C236.274 154.362 236.685 154.244 237.143 154.244C237.229 154.244 237.336 154.246 237.466 154.249C237.595 154.253 237.693 154.258 237.759 154.264V155.457C237.719 155.447 237.628 155.433 237.486 155.413C237.346 155.389 237.199 155.378 237.043 155.378C236.672 155.378 236.34 155.456 236.049 155.612C235.76 155.764 235.532 155.976 235.363 156.248C235.197 156.516 235.114 156.823 235.114 157.168V162H233.941ZM238.87 162V154.364H240.043V162H238.87ZM239.466 153.091C239.238 153.091 239.041 153.013 238.875 152.857C238.712 152.701 238.631 152.514 238.631 152.295C238.631 152.077 238.712 151.889 238.875 151.734C239.041 151.578 239.238 151.5 239.466 151.5C239.695 151.5 239.891 151.578 240.053 151.734C240.219 151.889 240.302 152.077 240.302 152.295C240.302 152.514 240.219 152.701 240.053 152.857C239.891 153.013 239.695 153.091 239.466 153.091Z" fill="#667080"/>
<path d="M173.688 152.912V151.818H181.325V152.912H178.123V162H176.89V152.912H173.688ZM183.962 157.406V162H182.788V151.818H183.962V155.557H184.061C184.24 155.162 184.509 154.849 184.867 154.617C185.228 154.382 185.708 154.264 186.308 154.264C186.829 154.264 187.284 154.369 187.676 154.577C188.067 154.783 188.37 155.099 188.585 155.527C188.804 155.951 188.913 156.491 188.913 157.148V162H187.74V157.227C187.74 156.621 187.583 156.152 187.268 155.82C186.956 155.486 186.524 155.318 185.97 155.318C185.586 155.318 185.241 155.399 184.936 155.562C184.635 155.724 184.396 155.961 184.22 156.273C184.048 156.584 183.962 156.962 183.962 157.406ZM195.592 158.878V154.364H196.766V162H195.592V160.707H195.513C195.334 161.095 195.056 161.425 194.678 161.697C194.3 161.965 193.823 162.099 193.246 162.099C192.769 162.099 192.344 161.995 191.973 161.786C191.602 161.574 191.31 161.256 191.098 160.832C190.886 160.404 190.78 159.866 190.78 159.216V154.364H191.953V159.136C191.953 159.693 192.109 160.137 192.421 160.469C192.735 160.8 193.137 160.966 193.624 160.966C193.915 160.966 194.212 160.891 194.514 160.742C194.819 160.593 195.074 160.364 195.279 160.056C195.488 159.748 195.592 159.355 195.592 158.878ZM198.635 162V154.364H199.768V155.517H199.848C199.987 155.139 200.239 154.833 200.603 154.597C200.968 154.362 201.379 154.244 201.836 154.244C201.923 154.244 202.03 154.246 202.16 154.249C202.289 154.253 202.387 154.258 202.453 154.264V155.457C202.413 155.447 202.322 155.433 202.179 155.413C202.04 155.389 201.893 155.378 201.737 155.378C201.366 155.378 201.034 155.456 200.743 155.612C200.454 155.764 200.226 155.976 200.057 156.248C199.891 156.516 199.808 156.823 199.808 157.168V162H198.635ZM208.973 156.074L207.919 156.372C207.853 156.196 207.755 156.026 207.626 155.86C207.5 155.691 207.327 155.552 207.108 155.442C206.89 155.333 206.61 155.278 206.268 155.278C205.801 155.278 205.412 155.386 205.1 155.602C204.792 155.814 204.638 156.084 204.638 156.412C204.638 156.704 204.744 156.934 204.956 157.103C205.168 157.272 205.499 157.413 205.95 157.526L207.084 157.804C207.766 157.97 208.275 158.223 208.61 158.565C208.945 158.903 209.112 159.339 209.112 159.872C209.112 160.31 208.986 160.701 208.734 161.045C208.486 161.39 208.138 161.662 207.69 161.861C207.243 162.06 206.722 162.159 206.129 162.159C205.35 162.159 204.706 161.99 204.195 161.652C203.685 161.314 203.362 160.82 203.226 160.17L204.339 159.892C204.445 160.303 204.646 160.611 204.941 160.817C205.239 161.022 205.629 161.125 206.109 161.125C206.656 161.125 207.09 161.009 207.412 160.777C207.737 160.542 207.899 160.26 207.899 159.932C207.899 159.667 207.806 159.445 207.621 159.266C207.435 159.083 207.15 158.947 206.765 158.858L205.493 158.56C204.793 158.394 204.28 158.137 203.952 157.789C203.627 157.438 203.464 156.999 203.464 156.472C203.464 156.041 203.585 155.66 203.827 155.328C204.072 154.997 204.406 154.737 204.827 154.548C205.251 154.359 205.731 154.264 206.268 154.264C207.024 154.264 207.617 154.43 208.048 154.761C208.482 155.093 208.791 155.53 208.973 156.074Z" fill="#667080"/>
<path d="M131.095 162L128.311 151.818H129.563L131.691 160.111H131.791L133.958 151.818H135.35L137.518 160.111H137.617L139.745 151.818H140.998L138.214 162H136.941L134.694 153.886H134.614L132.367 162H131.095ZM144.586 162.159C143.85 162.159 143.215 161.997 142.682 161.672C142.151 161.344 141.742 160.886 141.454 160.3C141.169 159.71 141.026 159.024 141.026 158.241C141.026 157.459 141.169 156.77 141.454 156.173C141.742 155.573 142.143 155.106 142.657 154.771C143.174 154.433 143.777 154.264 144.467 154.264C144.864 154.264 145.257 154.33 145.645 154.463C146.033 154.596 146.386 154.811 146.704 155.109C147.022 155.404 147.276 155.795 147.464 156.283C147.653 156.77 147.748 157.37 147.748 158.082V158.58H141.861V157.565H146.555C146.555 157.134 146.468 156.75 146.296 156.412C146.127 156.074 145.885 155.807 145.57 155.612C145.259 155.416 144.891 155.318 144.467 155.318C143.999 155.318 143.595 155.434 143.254 155.666C142.915 155.895 142.655 156.193 142.473 156.561C142.291 156.929 142.2 157.323 142.2 157.744V158.42C142.2 158.997 142.299 159.486 142.498 159.887C142.7 160.285 142.98 160.588 143.338 160.797C143.696 161.002 144.112 161.105 144.586 161.105C144.894 161.105 145.173 161.062 145.421 160.976C145.673 160.886 145.89 160.754 146.072 160.578C146.255 160.399 146.396 160.177 146.495 159.912L147.629 160.23C147.509 160.615 147.309 160.953 147.027 161.244C146.745 161.533 146.397 161.758 145.983 161.92C145.569 162.08 145.103 162.159 144.586 162.159ZM152.136 162.159C151.5 162.159 150.938 161.998 150.451 161.677C149.964 161.352 149.582 160.895 149.307 160.305C149.032 159.711 148.895 159.01 148.895 158.202C148.895 157.4 149.032 156.704 149.307 156.114C149.582 155.524 149.965 155.068 150.456 154.746C150.946 154.425 151.513 154.264 152.156 154.264C152.653 154.264 153.046 154.347 153.334 154.513C153.626 154.675 153.848 154.861 154.001 155.07C154.156 155.275 154.277 155.444 154.363 155.577H154.463V151.818H155.636V162H154.503V160.827H154.363C154.277 160.966 154.155 161.142 153.996 161.354C153.836 161.562 153.609 161.75 153.314 161.915C153.019 162.078 152.627 162.159 152.136 162.159ZM152.295 161.105C152.766 161.105 153.164 160.982 153.488 160.737C153.813 160.489 154.06 160.146 154.229 159.708C154.398 159.267 154.483 158.759 154.483 158.182C154.483 157.612 154.4 157.113 154.234 156.685C154.068 156.254 153.823 155.92 153.498 155.681C153.174 155.439 152.773 155.318 152.295 155.318C151.798 155.318 151.384 155.446 151.052 155.701C150.724 155.953 150.477 156.296 150.312 156.73C150.149 157.161 150.068 157.645 150.068 158.182C150.068 158.725 150.151 159.219 150.317 159.663C150.486 160.104 150.734 160.455 151.062 160.717C151.394 160.976 151.805 161.105 152.295 161.105Z" fill="#667080"/>
<path d="M88.6883 152.912V151.818H96.3247V152.912H93.123V162H91.89V152.912H88.6883ZM101.562 158.878V154.364H102.735V162H101.562V160.707H101.482C101.303 161.095 101.025 161.425 100.647 161.697C100.269 161.965 99.792 162.099 99.2153 162.099C98.7381 162.099 98.3138 161.995 97.9426 161.786C97.5714 161.574 97.2797 161.256 97.0676 160.832C96.8555 160.404 96.7494 159.866 96.7494 159.216V154.364H97.9227V159.136C97.9227 159.693 98.0785 160.137 98.3901 160.469C98.7049 160.8 99.106 160.966 99.5932 160.966C99.8848 160.966 100.181 160.891 100.483 160.742C100.788 160.593 101.043 160.364 101.249 160.056C101.458 159.748 101.562 159.355 101.562 158.878ZM107.806 162.159C107.07 162.159 106.435 161.997 105.902 161.672C105.371 161.344 104.962 160.886 104.674 160.3C104.389 159.71 104.246 159.024 104.246 158.241C104.246 157.459 104.389 156.77 104.674 156.173C104.962 155.573 105.363 155.106 105.877 154.771C106.394 154.433 106.997 154.264 107.687 154.264C108.084 154.264 108.477 154.33 108.865 154.463C109.253 154.596 109.606 154.811 109.924 155.109C110.242 155.404 110.496 155.795 110.684 156.283C110.873 156.77 110.968 157.37 110.968 158.082V158.58H105.081V157.565H109.775C109.775 157.134 109.688 156.75 109.516 156.412C109.347 156.074 109.105 155.807 108.79 155.612C108.479 155.416 108.111 155.318 107.687 155.318C107.219 155.318 106.815 155.434 106.474 155.666C106.135 155.895 105.875 156.193 105.693 156.561C105.511 156.929 105.42 157.323 105.42 157.744V158.42C105.42 158.997 105.519 159.486 105.718 159.887C105.92 160.285 106.2 160.588 106.558 160.797C106.916 161.002 107.332 161.105 107.806 161.105C108.114 161.105 108.393 161.062 108.641 160.976C108.893 160.886 109.11 160.754 109.292 160.578C109.475 160.399 109.616 160.177 109.715 159.912L110.849 160.23C110.729 160.615 110.529 160.953 110.247 161.244C109.965 161.533 109.617 161.758 109.203 161.92C108.789 162.08 108.323 162.159 107.806 162.159ZM117.882 156.074L116.828 156.372C116.761 156.196 116.664 156.026 116.534 155.86C116.408 155.691 116.236 155.552 116.017 155.442C115.799 155.333 115.519 155.278 115.177 155.278C114.71 155.278 114.32 155.386 114.009 155.602C113.701 155.814 113.546 156.084 113.546 156.412C113.546 156.704 113.653 156.934 113.865 157.103C114.077 157.272 114.408 157.413 114.859 157.526L115.993 157.804C116.675 157.97 117.184 158.223 117.519 158.565C117.854 158.903 118.021 159.339 118.021 159.872C118.021 160.31 117.895 160.701 117.643 161.045C117.395 161.39 117.046 161.662 116.599 161.861C116.152 162.06 115.631 162.159 115.038 162.159C114.259 162.159 113.614 161.99 113.104 161.652C112.594 161.314 112.27 160.82 112.135 160.17L113.248 159.892C113.354 160.303 113.555 160.611 113.85 160.817C114.148 161.022 114.538 161.125 115.018 161.125C115.565 161.125 115.999 161.009 116.321 160.777C116.645 160.542 116.808 160.26 116.808 159.932C116.808 159.667 116.715 159.445 116.529 159.266C116.344 159.083 116.059 158.947 115.674 158.858L114.402 158.56C113.702 158.394 113.189 158.137 112.86 157.789C112.536 157.438 112.373 156.999 112.373 156.472C112.373 156.041 112.494 155.66 112.736 155.328C112.981 154.997 113.314 154.737 113.735 154.548C114.16 154.359 114.64 154.264 115.177 154.264C115.933 154.264 116.526 154.43 116.957 154.761C117.391 155.093 117.699 155.53 117.882 156.074Z" fill="#667080"/>
<path d="M49.2452 151.818H50.7168L54.177 160.27H54.2963L57.7565 151.818H59.2281V162H58.0747V154.264H57.9753L54.7935 162H53.6798L50.498 154.264H50.3986V162H49.2452V151.818ZM64.3634 162.159C63.674 162.159 63.0692 161.995 62.5488 161.667C62.0317 161.339 61.6274 160.88 61.3357 160.29C61.0474 159.7 60.9032 159.01 60.9032 158.222C60.9032 157.426 61.0474 156.732 61.3357 156.138C61.6274 155.545 62.0317 155.085 62.5488 154.756C63.0692 154.428 63.674 154.264 64.3634 154.264C65.0528 154.264 65.656 154.428 66.1731 154.756C66.6934 155.085 67.0978 155.545 67.3861 156.138C67.6778 156.732 67.8236 157.426 67.8236 158.222C67.8236 159.01 67.6778 159.7 67.3861 160.29C67.0978 160.88 66.6934 161.339 66.1731 161.667C65.656 161.995 65.0528 162.159 64.3634 162.159ZM64.3634 161.105C64.8871 161.105 65.318 160.971 65.656 160.702C65.9941 160.434 66.2443 160.081 66.4067 159.643C66.5692 159.206 66.6504 158.732 66.6504 158.222C66.6504 157.711 66.5692 157.236 66.4067 156.795C66.2443 156.354 65.9941 155.998 65.656 155.726C65.318 155.454 64.8871 155.318 64.3634 155.318C63.8397 155.318 63.4089 155.454 63.0708 155.726C62.7327 155.998 62.4825 156.354 62.3201 156.795C62.1577 157.236 62.0765 157.711 62.0765 158.222C62.0765 158.732 62.1577 159.206 62.3201 159.643C62.4825 160.081 62.7327 160.434 63.0708 160.702C63.4089 160.971 63.8397 161.105 64.3634 161.105ZM70.508 157.406V162H69.3347V154.364H70.4682V155.557H70.5676C70.7466 155.169 71.0184 154.857 71.383 154.622C71.7475 154.384 72.2182 154.264 72.7949 154.264C73.3119 154.264 73.7644 154.37 74.1521 154.582C74.5399 154.791 74.8415 155.109 75.057 155.537C75.2724 155.961 75.3801 156.498 75.3801 157.148V162H74.2068V157.227C74.2068 156.627 74.051 156.16 73.7395 155.825C73.4279 155.487 73.0004 155.318 72.4568 155.318C72.0823 155.318 71.7475 155.399 71.4526 155.562C71.1609 155.724 70.9305 155.961 70.7615 156.273C70.5925 156.584 70.508 156.962 70.508 157.406Z" fill="#667080"/>
<rect x="15" y="26" width="19" height="116" fill="#D9D9D9"/>
<rect x="15" y="94" width="19" height="48" fill="#667080"/>
<rect x="15" y="46" width="19" height="48" fill="#BAC0CA"/>
<rect x="255" y="26" width="19" height="116" fill="#BAC0CA"/>
<rect x="255" y="94" width="19" height="48" fill="#667080"/>
<rect x="255" y="46" width="19" height="73" fill="#BAC0CA"/>
<rect x="51" y="26" width="19" height="116" fill="#D9D9D9"/>
<rect x="51" y="80" width="19" height="62" fill="#1E1E1E"/>
<rect x="51" y="40" width="19" height="40" fill="#BAC0CA"/>
<rect x="92" y="26" width="19" height="116" fill="#D9D9D9"/>
<rect x="92" y="94" width="19" height="48" fill="#667080"/>
<rect x="92" y="46" width="19" height="48" fill="white"/>
<rect x="135" y="26" width="19" height="116" fill="#D9D9D9"/>
<rect x="135" y="59" width="19" height="83" fill="#667080"/>
<rect x="135" y="46" width="19" height="13" fill="#BAC0CA"/>
<rect x="182" y="26" width="19" height="116" fill="#D9D9D9"/>
<rect x="182" y="94" width="19" height="48" fill="#667080"/>
<rect x="182" y="46" width="19" height="48" fill="#BAC0CA"/>
<rect x="223" y="26" width="19" height="116" fill="#D9D9D9"/>
<rect x="223" y="94" width="19" height="48" fill="#1E1E1E"/>
</svg>
