<svg width="134" height="180" viewBox="0 0 134 180" fill="none" xmlns="http://www.w3.org/2000/svg">
<circle cx="12.9434" cy="13.8065" r="12.9434" fill="#667080"/>
<path d="M40.7614 18V3.45455H42.5227V9.93182H50.2784V3.45455H52.0398V18H50.2784V11.4943H42.5227V18H40.7614ZM58.149 18.2557C57.4577 18.2557 56.8304 18.1255 56.2669 17.8651C55.7035 17.5999 55.256 17.2188 54.9246 16.7216C54.5931 16.2197 54.4274 15.6136 54.4274 14.9034C54.4274 14.2784 54.5505 13.7718 54.7967 13.3835C55.0429 12.9905 55.372 12.6828 55.7839 12.4602C56.1959 12.2377 56.6504 12.072 57.1476 11.9631C57.6495 11.8494 58.1537 11.7595 58.6604 11.6932C59.3232 11.608 59.8607 11.544 60.2726 11.5014C60.6893 11.4541 60.9923 11.3759 61.1817 11.267C61.3758 11.1581 61.4729 10.9687 61.4729 10.6989V10.642C61.4729 9.94129 61.2811 9.39678 60.8976 9.00852C60.5188 8.62027 59.9435 8.42614 59.1717 8.42614C58.3715 8.42614 57.7442 8.60133 57.2896 8.9517C56.8351 9.30208 56.5155 9.67614 56.3308 10.0739L54.7399 9.50568C55.024 8.8428 55.4028 8.3267 55.8763 7.95739C56.3545 7.58333 56.8753 7.32292 57.4388 7.17614C58.007 7.02462 58.5657 6.94886 59.1149 6.94886C59.4653 6.94886 59.8678 6.99148 60.3223 7.0767C60.7816 7.1572 61.2243 7.32528 61.6504 7.58097C62.0813 7.83665 62.4388 8.22254 62.7229 8.73864C63.007 9.25473 63.149 9.94602 63.149 10.8125V18H61.4729V16.5227H61.3876C61.274 16.7595 61.0846 17.0128 60.8195 17.2827C60.5543 17.5526 60.2016 17.7822 59.7612 17.9716C59.3209 18.161 58.7835 18.2557 58.149 18.2557ZM58.4047 16.75C59.0676 16.75 59.6263 16.6198 60.0808 16.3594C60.5401 16.099 60.8857 15.7628 61.1178 15.3509C61.3545 14.9389 61.4729 14.5057 61.4729 14.0511V12.517C61.4018 12.6023 61.2456 12.6804 61.0041 12.7514C60.7674 12.8177 60.4928 12.8769 60.1803 12.929C59.8725 12.9763 59.5718 13.0189 59.2783 13.0568C58.9894 13.09 58.7551 13.1184 58.5751 13.142C58.1395 13.1989 57.7323 13.2912 57.3536 13.419C56.9795 13.5421 56.6765 13.7292 56.4445 13.9801C56.2172 14.2263 56.1036 14.5625 56.1036 14.9886C56.1036 15.571 56.319 16.0114 56.7499 16.3097C57.1855 16.6032 57.7371 16.75 58.4047 16.75ZM65.8083 22.0909V7.09091H67.4276V8.82386H67.6265C67.7496 8.63447 67.9201 8.39299 68.1379 8.09943C68.3604 7.80114 68.6776 7.53598 69.0896 7.30398C69.5062 7.06723 70.0697 6.94886 70.7799 6.94886C71.6985 6.94886 72.5081 7.1785 73.2089 7.63778C73.9096 8.09706 74.4565 8.74811 74.8495 9.59091C75.2425 10.4337 75.439 11.428 75.439 12.5739C75.439 13.7292 75.2425 14.7306 74.8495 15.5781C74.4565 16.4209 73.912 17.0743 73.216 17.5384C72.52 17.9976 71.7174 18.2273 70.8083 18.2273C70.1076 18.2273 69.5465 18.1113 69.1251 17.8793C68.7037 17.6425 68.3793 17.375 68.1521 17.0767C67.9248 16.7737 67.7496 16.5227 67.6265 16.3239H67.4844V22.0909H65.8083ZM67.456 12.5455C67.456 13.3693 67.5768 14.0961 67.8183 14.7259C68.0597 15.3509 68.4125 15.8409 68.8765 16.196C69.3405 16.5464 69.9087 16.7216 70.581 16.7216C71.2818 16.7216 71.8665 16.5369 72.3353 16.1676C72.8088 15.7936 73.1639 15.2917 73.4006 14.6619C73.6421 14.0275 73.7629 13.322 73.7629 12.5455C73.7629 11.7784 73.6445 11.0871 73.4077 10.4716C73.1757 9.85133 72.823 9.36127 72.3495 9.00142C71.8808 8.63684 71.2913 8.45455 70.581 8.45455C69.8992 8.45455 69.3263 8.62737 68.8623 8.97301C68.3983 9.31392 68.0479 9.79214 67.8112 10.4077C67.5744 11.0185 67.456 11.7311 67.456 12.5455ZM77.5958 22.0909V7.09091H79.2151V8.82386H79.414C79.5371 8.63447 79.7076 8.39299 79.9254 8.09943C80.1479 7.80114 80.4651 7.53598 80.8771 7.30398C81.2937 7.06723 81.8572 6.94886 82.5674 6.94886C83.486 6.94886 84.2956 7.1785 84.9964 7.63778C85.6971 8.09706 86.244 8.74811 86.637 9.59091C87.03 10.4337 87.2265 11.428 87.2265 12.5739C87.2265 13.7292 87.03 14.7306 86.637 15.5781C86.244 16.4209 85.6995 17.0743 85.0035 17.5384C84.3075 17.9976 83.5049 18.2273 82.5958 18.2273C81.8951 18.2273 81.334 18.1113 80.9126 17.8793C80.4912 17.6425 80.1668 17.375 79.9396 17.0767C79.7123 16.7737 79.5371 16.5227 79.414 16.3239H79.2719V22.0909H77.5958ZM79.2435 12.5455C79.2435 13.3693 79.3643 14.0961 79.6058 14.7259C79.8472 15.3509 80.2 15.8409 80.664 16.196C81.128 16.5464 81.6962 16.7216 82.3685 16.7216C83.0693 16.7216 83.654 16.5369 84.1228 16.1676C84.5963 15.7936 84.9514 15.2917 85.1881 14.6619C85.4296 14.0275 85.5504 13.322 85.5504 12.5455C85.5504 11.7784 85.432 11.0871 85.1952 10.4716C84.9632 9.85133 84.6105 9.36127 84.137 9.00142C83.6683 8.63684 83.0788 8.45455 82.3685 8.45455C81.6867 8.45455 81.1138 8.62737 80.6498 8.97301C80.1858 9.31392 79.8354 9.79214 79.5986 10.4077C79.3619 11.0185 79.2435 11.7311 79.2435 12.5455ZM90.0722 22.0909C89.7881 22.0909 89.5348 22.0672 89.3123 22.0199C89.0898 21.9773 88.9359 21.9347 88.8506 21.892L89.2768 20.4148C89.684 20.5189 90.0438 20.5568 90.3563 20.5284C90.6688 20.5 90.9458 20.3603 91.1873 20.1094C91.4335 19.8632 91.6584 19.4631 91.862 18.9091L92.1745 18.0568L88.1404 7.09091H89.9586L92.97 15.7841H93.0836L96.095 7.09091H97.9131L93.2825 19.5909C93.0741 20.1544 92.8161 20.6207 92.5083 20.9901C92.2005 21.3641 91.8431 21.6411 91.4359 21.821C91.0334 22.0009 90.5789 22.0909 90.0722 22.0909Z" fill="#667080"/>
<circle cx="12.9434" cy="166.539" r="12.9434" fill="#1E1E1E"/>
<path d="M41.358 171H39.5114L44.8523 156.455H46.6705L52.0114 171H50.1648L45.8182 158.756H45.7045L41.358 171ZM42.0398 165.318H49.483V166.881H42.0398V165.318ZM55.3259 164.438V171H53.6497V160.091H55.269V161.795H55.4111C55.6668 161.241 56.055 160.796 56.5759 160.46C57.0967 160.119 57.769 159.949 58.5929 159.949C59.3315 159.949 59.9778 160.1 60.5318 160.403C61.0858 160.702 61.5167 161.156 61.8244 161.767C62.1322 162.373 62.2861 163.14 62.2861 164.068V171H60.6099V164.182C60.6099 163.325 60.3874 162.657 59.9423 162.179C59.4973 161.696 58.8865 161.455 58.1099 161.455C57.5749 161.455 57.0967 161.571 56.6753 161.803C56.2586 162.035 55.9295 162.373 55.6881 162.818C55.4466 163.263 55.3259 163.803 55.3259 164.438ZM69.3523 175.318C68.5427 175.318 67.8467 175.214 67.2643 175.006C66.6819 174.802 66.1966 174.532 65.8083 174.196C65.4248 173.865 65.1194 173.509 64.8921 173.131L66.2273 172.193C66.3789 172.392 66.5706 172.619 66.8026 172.875C67.0346 173.135 67.3519 173.36 67.7543 173.55C68.1615 173.744 68.6942 173.841 69.3523 173.841C70.233 173.841 70.9598 173.628 71.5327 173.202C72.1057 172.776 72.3921 172.108 72.3921 171.199V168.983H72.2501C72.127 169.182 71.9518 169.428 71.7245 169.722C71.502 170.01 71.18 170.268 70.7586 170.496C70.3419 170.718 69.7785 170.83 69.0683 170.83C68.1876 170.83 67.3969 170.621 66.6961 170.205C66.0001 169.788 65.4485 169.182 65.0413 168.386C64.6388 167.591 64.4376 166.625 64.4376 165.489C64.4376 164.371 64.6341 163.398 65.0271 162.57C65.4201 161.736 65.9669 161.092 66.6677 160.638C67.3684 160.179 68.1781 159.949 69.0967 159.949C69.8069 159.949 70.3703 160.067 70.787 160.304C71.2084 160.536 71.5304 160.801 71.7529 161.099C71.9802 161.393 72.1554 161.634 72.2785 161.824H72.4489V160.091H74.0683V171.312C74.0683 172.25 73.8552 173.012 73.429 173.599C73.0076 174.191 72.4395 174.625 71.7245 174.899C71.0143 175.179 70.2236 175.318 69.3523 175.318ZM69.2955 169.324C69.9679 169.324 70.5361 169.17 71.0001 168.862C71.4641 168.554 71.8168 168.112 72.0583 167.534C72.2998 166.956 72.4205 166.265 72.4205 165.46C72.4205 164.674 72.3022 163.981 72.0654 163.379C71.8287 162.778 71.4783 162.307 71.0143 161.966C70.5503 161.625 69.9773 161.455 69.2955 161.455C68.5853 161.455 67.9934 161.634 67.52 161.994C67.0512 162.354 66.6985 162.837 66.4617 163.443C66.2297 164.049 66.1137 164.722 66.1137 165.46C66.1137 166.218 66.2321 166.888 66.4688 167.47C66.7103 168.048 67.0654 168.502 67.5342 168.834C68.0076 169.161 68.5948 169.324 69.2955 169.324ZM76.7364 171V160.091H78.3558V161.739H78.4694C78.6683 161.199 79.0281 160.761 79.5489 160.425C80.0698 160.089 80.6569 159.92 81.3103 159.92C81.4334 159.92 81.5873 159.923 81.7719 159.928C81.9566 159.932 82.0963 159.939 82.191 159.949V161.653C82.1342 161.639 82.004 161.618 81.8004 161.589C81.6015 161.556 81.3908 161.54 81.1683 161.54C80.6379 161.54 80.1645 161.651 79.7478 161.874C79.3359 162.091 79.0092 162.394 78.7677 162.783C78.5309 163.166 78.4126 163.604 78.4126 164.097V171H76.7364ZM85.1894 175.091C84.9053 175.091 84.652 175.067 84.4295 175.02C84.2069 174.977 84.0531 174.935 83.9678 174.892L84.394 173.415C84.8012 173.519 85.161 173.557 85.4735 173.528C85.786 173.5 86.063 173.36 86.3045 173.109C86.5507 172.863 86.7756 172.463 86.9792 171.909L87.2917 171.057L83.2576 160.091H85.0758L88.0871 168.784H88.2008L91.2121 160.091H93.0303L88.3996 172.591C88.1913 173.154 87.9333 173.621 87.6255 173.99C87.3177 174.364 86.9603 174.641 86.5531 174.821C86.1506 175.001 85.696 175.091 85.1894 175.091Z" fill="#667080"/>
<circle cx="12.9434" cy="127.708" r="12.9434" fill="white"/>
<path d="M48.7159 122.091C48.6307 121.371 48.285 120.812 47.679 120.415C47.0729 120.017 46.3295 119.818 45.4489 119.818C44.8049 119.818 44.2415 119.922 43.7585 120.131C43.2803 120.339 42.9063 120.625 42.6364 120.99C42.3712 121.355 42.2386 121.769 42.2386 122.233C42.2386 122.621 42.331 122.955 42.5156 123.234C42.705 123.509 42.9465 123.739 43.2401 123.923C43.5336 124.103 43.8414 124.252 44.1634 124.371C44.4853 124.484 44.7812 124.577 45.0511 124.648L46.5284 125.045C46.9072 125.145 47.3286 125.282 47.7926 125.457C48.2614 125.633 48.7088 125.872 49.1349 126.175C49.5658 126.473 49.9209 126.857 50.2003 127.325C50.4796 127.794 50.6193 128.369 50.6193 129.051C50.6193 129.837 50.4134 130.547 50.0014 131.182C49.5942 131.816 48.9976 132.321 48.2116 132.695C47.4304 133.069 46.4811 133.256 45.3636 133.256C44.322 133.256 43.42 133.088 42.6577 132.751C41.9001 132.415 41.3035 131.946 40.8679 131.345C40.437 130.744 40.1932 130.045 40.1364 129.25H41.9545C42.0019 129.799 42.1866 130.254 42.5085 130.614C42.8352 130.969 43.2472 131.234 43.7443 131.409C44.2462 131.58 44.786 131.665 45.3636 131.665C46.036 131.665 46.6397 131.556 47.1747 131.338C47.7098 131.116 48.1335 130.808 48.446 130.415C48.7585 130.017 48.9148 129.553 48.9148 129.023C48.9148 128.54 48.7798 128.147 48.5099 127.844C48.2401 127.541 47.8849 127.295 47.4446 127.105C47.0043 126.916 46.5284 126.75 46.017 126.608L44.2273 126.097C43.0909 125.77 42.1913 125.304 41.5284 124.697C40.8655 124.091 40.5341 123.298 40.5341 122.318C40.5341 121.504 40.7543 120.794 41.1946 120.188C41.6397 119.577 42.2363 119.103 42.9844 118.767C43.7372 118.426 44.5777 118.256 45.5057 118.256C46.4432 118.256 47.2765 118.424 48.0057 118.76C48.7348 119.091 49.3125 119.546 49.7386 120.124C50.1695 120.701 50.3968 121.357 50.4205 122.091H48.7159ZM56.0982 133.256C55.4069 133.256 54.7796 133.125 54.2161 132.865C53.6527 132.6 53.2052 132.219 52.8738 131.722C52.5424 131.22 52.3766 130.614 52.3766 129.903C52.3766 129.278 52.4997 128.772 52.746 128.384C52.9922 127.991 53.3212 127.683 53.7332 127.46C54.1451 127.238 54.5996 127.072 55.0968 126.963C55.5987 126.849 56.103 126.759 56.6096 126.693C57.2725 126.608 57.8099 126.544 58.2218 126.501C58.6385 126.454 58.9415 126.376 59.1309 126.267C59.325 126.158 59.4221 125.969 59.4221 125.699V125.642C59.4221 124.941 59.2303 124.397 58.8468 124.009C58.468 123.62 57.8927 123.426 57.121 123.426C56.3208 123.426 55.6934 123.601 55.2389 123.952C54.7843 124.302 54.4647 124.676 54.28 125.074L52.6891 124.506C52.9732 123.843 53.352 123.327 53.8255 122.957C54.3037 122.583 54.8246 122.323 55.388 122.176C55.9562 122.025 56.5149 121.949 57.0641 121.949C57.4145 121.949 57.817 121.991 58.2715 122.077C58.7308 122.157 59.1735 122.325 59.5996 122.581C60.0305 122.837 60.388 123.223 60.6721 123.739C60.9562 124.255 61.0982 124.946 61.0982 125.812V133H59.4221V131.523H59.3369C59.2232 131.759 59.0338 132.013 58.7687 132.283C58.5035 132.553 58.1508 132.782 57.7104 132.972C57.2701 133.161 56.7327 133.256 56.0982 133.256ZM56.3539 131.75C57.0168 131.75 57.5755 131.62 58.03 131.359C58.4893 131.099 58.835 130.763 59.067 130.351C59.3037 129.939 59.4221 129.506 59.4221 129.051V127.517C59.3511 127.602 59.1948 127.68 58.9533 127.751C58.7166 127.818 58.442 127.877 58.1295 127.929C57.8217 127.976 57.521 128.019 57.2275 128.057C56.9387 128.09 56.7043 128.118 56.5244 128.142C56.0888 128.199 55.6816 128.291 55.3028 128.419C54.9287 128.542 54.6257 128.729 54.3937 128.98C54.1664 129.226 54.0528 129.562 54.0528 129.989C54.0528 130.571 54.2682 131.011 54.6991 131.31C55.1347 131.603 55.6863 131.75 56.3539 131.75ZM67.8768 133.227C66.9678 133.227 66.1652 132.998 65.4692 132.538C64.7732 132.074 64.2286 131.421 63.8357 130.578C63.4427 129.731 63.2462 128.729 63.2462 127.574C63.2462 126.428 63.4427 125.434 63.8357 124.591C64.2286 123.748 64.7755 123.097 65.4763 122.638C66.177 122.179 66.9867 121.949 67.9053 121.949C68.6155 121.949 69.1766 122.067 69.5885 122.304C70.0052 122.536 70.3224 122.801 70.5402 123.099C70.7627 123.393 70.9356 123.634 71.0587 123.824H71.2007V118.455H72.8768V133H71.2575V131.324H71.0587C70.9356 131.523 70.7604 131.774 70.5331 132.077C70.3058 132.375 69.9815 132.643 69.5601 132.879C69.1387 133.111 68.5776 133.227 67.8768 133.227ZM68.1041 131.722C68.7765 131.722 69.3447 131.546 69.8087 131.196C70.2727 130.841 70.6254 130.351 70.8669 129.726C71.1084 129.096 71.2291 128.369 71.2291 127.545C71.2291 126.731 71.1107 126.018 70.874 125.408C70.6373 124.792 70.2869 124.314 69.8229 123.973C69.3589 123.627 68.7859 123.455 68.1041 123.455C67.3939 123.455 66.802 123.637 66.3286 124.001C65.8598 124.361 65.5071 124.851 65.2703 125.472C65.0383 126.087 64.9223 126.778 64.9223 127.545C64.9223 128.322 65.0407 129.027 65.2774 129.662C65.5189 130.292 65.874 130.794 66.3428 131.168C66.8162 131.537 67.4034 131.722 68.1041 131.722Z" fill="#667080"/>
<circle cx="12.9434" cy="88.8781" r="12.9434" fill="#D9D9D9"/>
<path d="M48.7159 85.0909C48.6307 84.3712 48.285 83.8125 47.679 83.4148C47.0729 83.017 46.3295 82.8182 45.4489 82.8182C44.8049 82.8182 44.2415 82.9223 43.7585 83.1307C43.2803 83.339 42.9063 83.6255 42.6364 83.9901C42.3712 84.3546 42.2386 84.7689 42.2386 85.233C42.2386 85.6212 42.331 85.955 42.5156 86.2344C42.705 86.509 42.9465 86.7386 43.2401 86.9233C43.5336 87.1032 43.8414 87.2524 44.1634 87.3707C44.4853 87.4844 44.7812 87.5767 45.0511 87.6477L46.5284 88.0455C46.9072 88.1449 47.3286 88.2822 47.7926 88.4574C48.2614 88.6326 48.7088 88.8717 49.1349 89.1747C49.5658 89.473 49.9209 89.8565 50.2003 90.3253C50.4796 90.794 50.6193 91.3693 50.6193 92.0511C50.6193 92.8371 50.4134 93.5473 50.0014 94.1818C49.5942 94.8163 48.9976 95.3205 48.2116 95.6946C47.4304 96.0687 46.4811 96.2557 45.3636 96.2557C44.322 96.2557 43.42 96.0876 42.6577 95.7514C41.9001 95.4152 41.3035 94.9465 40.8679 94.3452C40.437 93.7438 40.1932 93.0455 40.1364 92.25H41.9545C42.0019 92.7992 42.1866 93.2538 42.5085 93.6136C42.8352 93.9687 43.2472 94.2339 43.7443 94.4091C44.2462 94.5795 44.786 94.6648 45.3636 94.6648C46.036 94.6648 46.6397 94.5559 47.1747 94.3381C47.7098 94.1155 48.1335 93.8078 48.446 93.4148C48.7585 93.017 48.9148 92.553 48.9148 92.0227C48.9148 91.5398 48.7798 91.1468 48.5099 90.8438C48.2401 90.5407 47.8849 90.2945 47.4446 90.1051C47.0043 89.9157 46.5284 89.75 46.017 89.608L44.2273 89.0966C43.0909 88.7699 42.1913 88.3035 41.5284 87.6974C40.8655 87.0914 40.5341 86.2983 40.5341 85.3182C40.5341 84.5038 40.7543 83.7936 41.1946 83.1875C41.6397 82.5767 42.2363 82.1032 42.9844 81.767C43.7372 81.4261 44.5777 81.2557 45.5057 81.2557C46.4432 81.2557 47.2765 81.4238 48.0057 81.7599C48.7348 82.0914 49.3125 82.5459 49.7386 83.1236C50.1695 83.7012 50.3968 84.357 50.4205 85.0909H48.7159ZM57.6323 85.0909V86.5114H51.9789V85.0909H57.6323ZM53.6266 82.4773H55.3028V92.875C55.3028 93.3485 55.3714 93.7036 55.5087 93.9403C55.6508 94.1723 55.8307 94.3286 56.0485 94.4091C56.271 94.4848 56.5054 94.5227 56.7516 94.5227C56.9363 94.5227 57.0878 94.5133 57.2062 94.4943C57.3246 94.4706 57.4192 94.4517 57.4903 94.4375L57.8312 95.9432C57.7175 95.9858 57.5589 96.0284 57.3553 96.071C57.1517 96.1184 56.8937 96.142 56.5812 96.142C56.1077 96.142 55.6437 96.0402 55.1891 95.8366C54.7393 95.633 54.3653 95.3229 54.067 94.9062C53.7734 94.4896 53.6266 93.964 53.6266 93.3295V82.4773ZM59.7536 96V85.0909H61.3729V86.7386H61.4866C61.6854 86.1989 62.0453 85.7609 62.5661 85.4247C63.087 85.0885 63.6741 84.9205 64.3275 84.9205C64.4506 84.9205 64.6045 84.9228 64.7891 84.9276C64.9738 84.9323 65.1135 84.9394 65.2082 84.9489V86.6534C65.1514 86.6392 65.0211 86.6179 64.8175 86.5895C64.6187 86.5563 64.408 86.5398 64.1854 86.5398C63.6551 86.5398 63.1817 86.651 62.765 86.8736C62.3531 87.0914 62.0264 87.3944 61.7849 87.7827C61.5481 88.1662 61.4298 88.6042 61.4298 89.0966V96H59.7536ZM71.0369 96.2273C69.9857 96.2273 69.079 95.9953 68.3167 95.5312C67.5591 95.0625 66.9744 94.4091 66.5624 93.571C66.1552 92.7282 65.9516 91.7481 65.9516 90.6307C65.9516 89.5133 66.1552 88.5284 66.5624 87.6761C66.9744 86.8191 67.5473 86.1515 68.2812 85.6733C69.0198 85.1903 69.8816 84.9489 70.8664 84.9489C71.4346 84.9489 71.9957 85.0436 72.5496 85.233C73.1036 85.4223 73.6079 85.7301 74.0624 86.1562C74.517 86.5777 74.8792 87.1364 75.1491 87.8324C75.419 88.5284 75.5539 89.3854 75.5539 90.4034V91.1136H67.1448V89.6648H73.8494C73.8494 89.0492 73.7263 88.5 73.48 88.017C73.2386 87.5341 72.8929 87.1529 72.4431 86.8736C71.998 86.5942 71.4725 86.4545 70.8664 86.4545C70.1988 86.4545 69.6211 86.6203 69.1335 86.9517C68.6505 87.2784 68.2788 87.7045 68.0184 88.2301C67.758 88.7557 67.6278 89.3191 67.6278 89.9205V90.8864C67.6278 91.7102 67.7698 92.4086 68.0539 92.9815C68.3427 93.5497 68.7428 93.983 69.2542 94.2812C69.7656 94.5748 70.3598 94.7216 71.0369 94.7216C71.4772 94.7216 71.8749 94.66 72.23 94.5369C72.5899 94.4091 72.9 94.2197 73.1604 93.9688C73.4209 93.7131 73.6221 93.3958 73.7641 93.017L75.3835 93.4716C75.213 94.0208 74.9265 94.5038 74.5241 94.9205C74.1216 95.3324 73.6245 95.6544 73.0326 95.8864C72.4407 96.1136 71.7755 96.2273 71.0369 96.2273ZM85.4309 87.5341L83.9252 87.9602C83.8305 87.7093 83.6908 87.4654 83.5062 87.2287C83.3263 86.9872 83.08 86.7884 82.7675 86.6321C82.455 86.4759 82.0549 86.3977 81.5673 86.3977C80.8996 86.3977 80.3433 86.5516 79.8982 86.8594C79.4579 87.1624 79.2377 87.5483 79.2377 88.017C79.2377 88.4337 79.3892 88.7628 79.6923 89.0043C79.9953 89.2457 80.4688 89.447 81.1127 89.608L82.732 90.0057C83.7074 90.2424 84.4342 90.6046 84.9124 91.0923C85.3907 91.5753 85.6298 92.1979 85.6298 92.9602C85.6298 93.5852 85.4498 94.1439 85.09 94.6364C84.7349 95.1288 84.2377 95.517 83.5985 95.8011C82.9593 96.0852 82.2159 96.2273 81.3684 96.2273C80.2557 96.2273 79.3348 95.9858 78.6056 95.5028C77.8764 95.0199 77.4148 94.3144 77.2207 93.3864L78.8116 92.9886C78.9631 93.5758 79.2496 94.0161 79.671 94.3097C80.0971 94.6032 80.6534 94.75 81.34 94.75C82.1212 94.75 82.7415 94.5843 83.2008 94.2528C83.6648 93.9167 83.8968 93.5142 83.8968 93.0455C83.8968 92.6667 83.7642 92.3494 83.4991 92.0938C83.2339 91.8333 82.8267 91.6392 82.2775 91.5114L80.4593 91.0852C79.4603 90.8485 78.7264 90.4815 78.2576 89.9844C77.7936 89.4825 77.5616 88.8551 77.5616 88.1023C77.5616 87.4867 77.7344 86.9422 78.08 86.4688C78.4304 85.9953 78.9063 85.6236 79.5076 85.3537C80.1137 85.0838 80.8002 84.9489 81.5673 84.9489C82.6468 84.9489 83.4943 85.1856 84.1099 85.6591C84.7301 86.1326 85.1705 86.7576 85.4309 87.5341ZM95.4801 87.5341L93.9744 87.9602C93.8797 87.7093 93.7401 87.4654 93.5554 87.2287C93.3755 86.9872 93.1293 86.7884 92.8168 86.6321C92.5043 86.4759 92.1042 86.3977 91.6165 86.3977C90.9489 86.3977 90.3925 86.5516 89.9474 86.8594C89.5071 87.1624 89.2869 87.5483 89.2869 88.017C89.2869 88.4337 89.4384 88.7628 89.7415 89.0043C90.0445 89.2457 90.518 89.447 91.1619 89.608L92.7812 90.0057C93.7566 90.2424 94.4834 90.6046 94.9616 91.0923C95.4399 91.5753 95.679 92.1979 95.679 92.9602C95.679 93.5852 95.4991 94.1439 95.1392 94.6364C94.7841 95.1288 94.2869 95.517 93.6477 95.8011C93.0085 96.0852 92.2652 96.2273 91.4176 96.2273C90.3049 96.2273 89.384 95.9858 88.6548 95.5028C87.9257 95.0199 87.464 94.3144 87.2699 93.3864L88.8608 92.9886C89.0123 93.5758 89.2988 94.0161 89.7202 94.3097C90.1463 94.6032 90.7027 94.75 91.3892 94.75C92.1705 94.75 92.7907 94.5843 93.25 94.2528C93.714 93.9167 93.946 93.5142 93.946 93.0455C93.946 92.6667 93.8134 92.3494 93.5483 92.0938C93.2831 91.8333 92.8759 91.6392 92.3267 91.5114L90.5085 91.0852C89.5095 90.8485 88.7756 90.4815 88.3068 89.9844C87.8428 89.4825 87.6108 88.8551 87.6108 88.1023C87.6108 87.4867 87.7836 86.9422 88.1293 86.4688C88.4796 85.9953 88.9555 85.6236 89.5568 85.3537C90.1629 85.0838 90.8494 84.9489 91.6165 84.9489C92.696 84.9489 93.5436 85.1856 94.1591 85.6591C94.7794 86.1326 95.2197 86.7576 95.4801 87.5341ZM102.376 96.2273C101.325 96.2273 100.418 95.9953 99.6558 95.5312C98.8982 95.0625 98.3134 94.4091 97.9015 93.571C97.4943 92.7282 97.2907 91.7481 97.2907 90.6307C97.2907 89.5133 97.4943 88.5284 97.9015 87.6761C98.3134 86.8191 98.8863 86.1515 99.6202 85.6733C100.359 85.1903 101.221 84.9489 102.205 84.9489C102.774 84.9489 103.335 85.0436 103.889 85.233C104.443 85.4223 104.947 85.7301 105.401 86.1562C105.856 86.5777 106.218 87.1364 106.488 87.8324C106.758 88.5284 106.893 89.3854 106.893 90.4034V91.1136H98.4839V89.6648H105.188C105.188 89.0492 105.065 88.5 104.819 88.017C104.578 87.5341 104.232 87.1529 103.782 86.8736C103.337 86.5942 102.812 86.4545 102.205 86.4545C101.538 86.4545 100.96 86.6203 100.473 86.9517C99.9896 87.2784 99.6179 87.7045 99.3575 88.2301C99.097 88.7557 98.9668 89.3191 98.9668 89.9205V90.8864C98.9668 91.7102 99.1089 92.4086 99.393 92.9815C99.6818 93.5497 100.082 93.983 100.593 94.2812C101.105 94.5748 101.699 94.7216 102.376 94.7216C102.816 94.7216 103.214 94.66 103.569 94.5369C103.929 94.4091 104.239 94.2197 104.5 93.9688C104.76 93.7131 104.961 93.3958 105.103 93.017L106.723 93.4716C106.552 94.0208 106.266 94.5038 105.863 94.9205C105.461 95.3324 104.964 95.6544 104.372 95.8864C103.78 96.1136 103.115 96.2273 102.376 96.2273ZM113.162 96.2273C112.253 96.2273 111.45 95.9976 110.754 95.5384C110.058 95.0743 109.514 94.4209 109.121 93.5781C108.728 92.7306 108.531 91.7292 108.531 90.5739C108.531 89.428 108.728 88.4337 109.121 87.5909C109.514 86.7481 110.061 86.0971 110.761 85.6378C111.462 85.1785 112.272 84.9489 113.19 84.9489C113.901 84.9489 114.462 85.0672 114.874 85.304C115.29 85.536 115.608 85.8011 115.825 86.0994C116.048 86.393 116.221 86.6345 116.344 86.8239H116.486V81.4545H118.162V96H116.543V94.3239H116.344C116.221 94.5227 116.046 94.7737 115.818 95.0767C115.591 95.375 115.267 95.6425 114.845 95.8793C114.424 96.1113 113.863 96.2273 113.162 96.2273ZM113.389 94.7216C114.062 94.7216 114.63 94.5464 115.094 94.196C115.558 93.8409 115.911 93.3509 116.152 92.7259C116.394 92.0961 116.514 91.3693 116.514 90.5455C116.514 89.7311 116.396 89.0185 116.159 88.4077C115.922 87.7921 115.572 87.3139 115.108 86.973C114.644 86.6274 114.071 86.4545 113.389 86.4545C112.679 86.4545 112.087 86.6368 111.614 87.0014C111.145 87.3613 110.792 87.8513 110.555 88.4716C110.323 89.0871 110.207 89.7784 110.207 90.5455C110.207 91.322 110.326 92.0275 110.563 92.6619C110.804 93.2917 111.159 93.7936 111.628 94.1676C112.101 94.5369 112.689 94.7216 113.389 94.7216Z" fill="#667080"/>
<circle cx="12.9434" cy="52.6365" r="12.9434" fill="#BAC0CA"/>
<path d="M52.4659 48H50.7045C50.6004 47.4934 50.4181 47.0483 50.1577 46.6648C49.902 46.2812 49.5895 45.9593 49.2202 45.6989C48.8556 45.4337 48.4508 45.2348 48.0057 45.1023C47.5606 44.9697 47.0966 44.9034 46.6136 44.9034C45.733 44.9034 44.9351 45.1259 44.2202 45.571C43.5099 46.0161 42.9441 46.6719 42.5227 47.5384C42.1061 48.4048 41.8977 49.4678 41.8977 50.7273C41.8977 51.9867 42.1061 53.0497 42.5227 53.9162C42.9441 54.7827 43.5099 55.4384 44.2202 55.8835C44.9351 56.3286 45.733 56.5511 46.6136 56.5511C47.0966 56.5511 47.5606 56.4848 48.0057 56.3523C48.4508 56.2197 48.8556 56.0232 49.2202 55.7628C49.5895 55.4976 49.902 55.1733 50.1577 54.7898C50.4181 54.4015 50.6004 53.9564 50.7045 53.4545H52.4659C52.3333 54.1979 52.0919 54.8632 51.7415 55.4503C51.3911 56.0374 50.9555 56.5369 50.4347 56.9489C49.9138 57.3561 49.3291 57.6662 48.6804 57.8793C48.0365 58.0923 47.3475 58.1989 46.6136 58.1989C45.3731 58.1989 44.2699 57.8958 43.304 57.2898C42.3381 56.6837 41.5781 55.822 41.0241 54.7045C40.4702 53.5871 40.1932 52.2614 40.1932 50.7273C40.1932 49.1932 40.4702 47.8674 41.0241 46.75C41.5781 45.6326 42.3381 44.7708 43.304 44.1648C44.2699 43.5587 45.3731 43.2557 46.6136 43.2557C47.3475 43.2557 48.0365 43.3622 48.6804 43.5753C49.3291 43.7884 49.9138 44.1009 50.4347 44.5128C50.9555 44.92 51.3911 45.4171 51.7415 46.0043C52.0919 46.5866 52.3333 47.2519 52.4659 48ZM56.361 51.4375V58H54.6849V43.4545H56.361V48.7955H56.5031C56.7587 48.232 57.1423 47.7846 57.6536 47.4531C58.1697 47.117 58.8563 46.9489 59.7133 46.9489C60.4567 46.9489 61.1077 47.098 61.6664 47.3963C62.2251 47.6899 62.6584 48.142 62.9661 48.7528C63.2786 49.3589 63.4349 50.1307 63.4349 51.0682V58H61.7587V51.1818C61.7587 50.3153 61.5338 49.6454 61.084 49.1719C60.6389 48.6937 60.021 48.4545 59.2303 48.4545C58.6811 48.4545 58.1887 48.5705 57.7531 48.8026C57.3222 49.0346 56.9813 49.3731 56.7303 49.8182C56.4841 50.2633 56.361 50.803 56.361 51.4375ZM66.1013 58V47.0909H67.7774V58H66.1013ZM66.9536 45.2727C66.6268 45.2727 66.3451 45.1615 66.1084 44.9389C65.8764 44.7164 65.7604 44.4489 65.7604 44.1364C65.7604 43.8239 65.8764 43.5563 66.1084 43.3338C66.3451 43.1113 66.6268 43 66.9536 43C67.2803 43 67.5596 43.1113 67.7916 43.3338C68.0284 43.5563 68.1467 43.8239 68.1467 44.1364C68.1467 44.4489 68.0284 44.7164 67.7916 44.9389C67.5596 45.1615 67.2803 45.2727 66.9536 45.2727ZM72.1235 43.4545V58H70.4474V43.4545H72.1235ZM76.4696 43.4545V58H74.7935V43.4545H76.4696Z" fill="#667080"/>
</svg>
