<svg width="120" height="120" viewBox="0 0 120 120" fill="none" xmlns="http://www.w3.org/2000/svg">
<path d="M15 90V60C15 48.0653 19.7411 36.6193 28.1802 28.1802C36.6193 19.7411 48.0653 15 60 15C71.9347 15 83.3807 19.7411 91.8198 28.1802C100.259 36.6193 105 48.0653 105 60V90" stroke="#667080" stroke-width="5" stroke-linecap="round" stroke-linejoin="round"/>
<path d="M105 95C105 97.6522 103.946 100.196 102.071 102.071C100.196 103.946 97.6522 105 95 105H90C87.3478 105 84.8043 103.946 82.9289 102.071C81.0536 100.196 80 97.6522 80 95V80C80 77.3478 81.0536 74.8043 82.9289 72.9289C84.8043 71.0536 87.3478 70 90 70H105V95ZM15 95C15 97.6522 16.0536 100.196 17.9289 102.071C19.8043 103.946 22.3478 105 25 105H30C32.6522 105 35.1957 103.946 37.0711 102.071C38.9464 100.196 40 97.6522 40 95V80C40 77.3478 38.9464 74.8043 37.0711 72.9289C35.1957 71.0536 32.6522 70 30 70H15V95Z" fill="#667080" stroke="#667080" stroke-width="3" stroke-linecap="round" stroke-linejoin="round"/>
</svg>
