<svg width="321" height="173" viewBox="0 0 321 173" fill="none" xmlns="http://www.w3.org/2000/svg">
<line x1="262" y1="40" x2="294" y2="40" stroke="white" stroke-width="2"/>
<line x1="220.555" y1="12.1679" x2="262.555" y2="40.1679" stroke="white" stroke-width="2"/>
<line x1="175.994" y1="12.5" x2="221.005" y2="12.5" stroke="white" stroke-width="2"/>
<line x1="137.435" y1="39.1747" x2="175.435" y2="13.1747" stroke="white" stroke-width="2"/>
<line x1="95.4409" y1="68.1709" x2="138.441" y2="39.1709" stroke="white" stroke-width="2"/>
<line x1="56.2056" y1="120.393" x2="95.2056" y2="69.3925" stroke="white" stroke-width="2"/>
<line x1="39.2548" y1="139.333" x2="56.2548" y2="120.333" stroke="white" stroke-width="2"/>
<line x1="38.5" y1="140.5" x2="38.5" y2="1.5" stroke="#667080" stroke-width="3" stroke-linecap="round"/>
<line x1="308.508" y1="141.994" x2="38.4878" y2="141.994" stroke="#667080" stroke-width="3" stroke-linecap="round"/>
<path d="M46.8011 154.364C46.7415 153.86 46.4995 153.469 46.0753 153.19C45.651 152.912 45.1307 152.773 44.5142 152.773C44.0634 152.773 43.669 152.846 43.331 152.991C42.9962 153.137 42.7344 153.338 42.5455 153.593C42.3598 153.848 42.267 154.138 42.267 154.463C42.267 154.735 42.3317 154.969 42.4609 155.164C42.5935 155.356 42.7625 155.517 42.968 155.646C43.1735 155.772 43.389 155.877 43.6143 155.96C43.8397 156.039 44.0469 156.104 44.2358 156.153L45.2699 156.432C45.535 156.501 45.83 156.598 46.1548 156.72C46.483 156.843 46.7962 157.01 47.0945 157.222C47.3961 157.431 47.6446 157.7 47.8402 158.028C48.0357 158.356 48.1335 158.759 48.1335 159.236C48.1335 159.786 47.9893 160.283 47.701 160.727C47.416 161.171 46.9983 161.524 46.4482 161.786C45.9013 162.048 45.2367 162.179 44.4545 162.179C43.7254 162.179 43.094 162.061 42.5604 161.826C42.0301 161.591 41.6125 161.263 41.3075 160.842C41.0059 160.421 40.8352 159.932 40.7955 159.375H42.0682C42.1013 159.759 42.2306 160.078 42.456 160.33C42.6847 160.578 42.973 160.764 43.321 160.886C43.6723 161.006 44.0502 161.065 44.4545 161.065C44.9252 161.065 45.3478 160.989 45.7223 160.837C46.0968 160.681 46.3935 160.465 46.6122 160.19C46.831 159.912 46.9403 159.587 46.9403 159.216C46.9403 158.878 46.8459 158.603 46.657 158.391C46.468 158.179 46.2195 158.006 45.9112 157.874C45.603 157.741 45.2699 157.625 44.9119 157.526L43.6591 157.168C42.8636 156.939 42.2339 156.612 41.7699 156.188C41.3059 155.764 41.0739 155.209 41.0739 154.523C41.0739 153.953 41.228 153.455 41.5362 153.031C41.8478 152.604 42.2654 152.272 42.7891 152.037C43.3161 151.798 43.9044 151.679 44.554 151.679C45.2102 151.679 45.7936 151.797 46.304 152.032C46.8144 152.264 47.2188 152.582 47.517 152.987C47.8187 153.391 47.9777 153.85 47.9943 154.364H46.8011ZM54.5341 158.878V154.364H55.7074V162H54.5341V160.707H54.4546C54.2756 161.095 53.9972 161.425 53.6193 161.697C53.2415 161.965 52.7642 162.099 52.1875 162.099C51.7102 162.099 51.286 161.995 50.9148 161.786C50.5436 161.574 50.2519 161.256 50.0398 160.832C49.8277 160.404 49.7216 159.866 49.7216 159.216V154.364H50.8949V159.136C50.8949 159.693 51.0507 160.137 51.3622 160.469C51.6771 160.8 52.0781 160.966 52.5653 160.966C52.857 160.966 53.1537 160.891 53.4553 160.742C53.7602 160.593 54.0154 160.364 54.2209 160.056C54.4297 159.748 54.5341 159.355 54.5341 158.878ZM58.7497 157.406V162H57.5764V154.364H58.7099V155.557H58.8093C58.9883 155.169 59.2601 154.857 59.6247 154.622C59.9892 154.384 60.4599 154.264 61.0366 154.264C61.5536 154.264 62.0061 154.37 62.3938 154.582C62.7816 154.791 63.0832 155.109 63.2987 155.537C63.5141 155.961 63.6218 156.498 63.6218 157.148V162H62.4485V157.227C62.4485 156.627 62.2927 156.16 61.9812 155.825C61.6696 155.487 61.2421 155.318 60.6985 155.318C60.324 155.318 59.9892 155.399 59.6943 155.562C59.4026 155.724 59.1722 155.961 59.0032 156.273C58.8342 156.584 58.7497 156.962 58.7497 157.406Z" fill="#667080"/>
<path d="M290.801 154.364C290.741 153.86 290.5 153.469 290.075 153.19C289.651 152.912 289.131 152.773 288.514 152.773C288.063 152.773 287.669 152.846 287.331 152.991C286.996 153.137 286.734 153.338 286.545 153.593C286.36 153.848 286.267 154.138 286.267 154.463C286.267 154.735 286.332 154.969 286.461 155.164C286.594 155.356 286.763 155.517 286.968 155.646C287.174 155.772 287.389 155.877 287.614 155.96C287.84 156.039 288.047 156.104 288.236 156.153L289.27 156.432C289.535 156.501 289.83 156.598 290.155 156.72C290.483 156.843 290.796 157.01 291.094 157.222C291.396 157.431 291.645 157.7 291.84 158.028C292.036 158.356 292.134 158.759 292.134 159.236C292.134 159.786 291.989 160.283 291.701 160.727C291.416 161.171 290.998 161.524 290.448 161.786C289.901 162.048 289.237 162.179 288.455 162.179C287.725 162.179 287.094 162.061 286.56 161.826C286.03 161.591 285.612 161.263 285.308 160.842C285.006 160.421 284.835 159.932 284.795 159.375H286.068C286.101 159.759 286.231 160.078 286.456 160.33C286.685 160.578 286.973 160.764 287.321 160.886C287.672 161.006 288.05 161.065 288.455 161.065C288.925 161.065 289.348 160.989 289.722 160.837C290.097 160.681 290.393 160.465 290.612 160.19C290.831 159.912 290.94 159.587 290.94 159.216C290.94 158.878 290.846 158.603 290.657 158.391C290.468 158.179 290.219 158.006 289.911 157.874C289.603 157.741 289.27 157.625 288.912 157.526L287.659 157.168C286.864 156.939 286.234 156.612 285.77 156.188C285.306 155.764 285.074 155.209 285.074 154.523C285.074 153.953 285.228 153.455 285.536 153.031C285.848 152.604 286.265 152.272 286.789 152.037C287.316 151.798 287.904 151.679 288.554 151.679C289.21 151.679 289.794 151.797 290.304 152.032C290.814 152.264 291.219 152.582 291.517 152.987C291.819 153.391 291.978 153.85 291.994 154.364H290.801ZM295.969 162.179C295.485 162.179 295.046 162.088 294.651 161.906C294.257 161.72 293.944 161.453 293.712 161.105C293.48 160.754 293.364 160.33 293.364 159.832C293.364 159.395 293.45 159.04 293.622 158.768C293.795 158.493 294.025 158.278 294.313 158.122C294.602 157.966 294.92 157.85 295.268 157.774C295.619 157.695 295.972 157.632 296.327 157.585C296.791 157.526 297.167 157.481 297.455 157.451C297.747 157.418 297.959 157.363 298.092 157.287C298.228 157.211 298.295 157.078 298.295 156.889V156.849C298.295 156.359 298.161 155.978 297.893 155.706C297.628 155.434 297.225 155.298 296.685 155.298C296.125 155.298 295.685 155.421 295.367 155.666C295.049 155.911 294.825 156.173 294.696 156.452L293.582 156.054C293.781 155.59 294.046 155.229 294.378 154.97C294.713 154.708 295.077 154.526 295.472 154.423C295.869 154.317 296.26 154.264 296.645 154.264C296.89 154.264 297.172 154.294 297.49 154.354C297.812 154.41 298.121 154.528 298.42 154.707C298.721 154.886 298.972 155.156 299.17 155.517C299.369 155.878 299.469 156.362 299.469 156.969V162H298.295V160.966H298.236C298.156 161.132 298.024 161.309 297.838 161.498C297.652 161.687 297.406 161.848 297.097 161.98C296.789 162.113 296.413 162.179 295.969 162.179ZM296.148 161.125C296.612 161.125 297.003 161.034 297.321 160.852C297.643 160.669 297.884 160.434 298.047 160.146C298.213 159.857 298.295 159.554 298.295 159.236V158.162C298.246 158.222 298.136 158.276 297.967 158.326C297.802 158.372 297.609 158.414 297.391 158.45C297.175 158.483 296.965 158.513 296.759 158.54C296.557 158.563 296.393 158.583 296.267 158.599C295.962 158.639 295.677 158.704 295.412 158.793C295.15 158.879 294.938 159.01 294.776 159.186C294.616 159.358 294.537 159.594 294.537 159.892C294.537 160.3 294.688 160.608 294.989 160.817C295.294 161.022 295.68 161.125 296.148 161.125ZM304.651 154.364V155.358H300.694V154.364H304.651ZM301.847 152.534H303.021V159.812C303.021 160.144 303.069 160.393 303.165 160.558C303.264 160.721 303.39 160.83 303.543 160.886C303.698 160.939 303.862 160.966 304.035 160.966C304.164 160.966 304.27 160.959 304.353 160.946C304.436 160.929 304.502 160.916 304.552 160.906L304.79 161.96C304.711 161.99 304.6 162.02 304.457 162.05C304.315 162.083 304.134 162.099 303.915 162.099C303.584 162.099 303.259 162.028 302.941 161.886C302.626 161.743 302.364 161.526 302.156 161.234C301.95 160.943 301.847 160.575 301.847 160.131V152.534Z" fill="#667080"/>
<path d="M255.233 162V151.818H261.338V152.912H256.466V156.352H260.881V157.446H256.466V162H255.233ZM262.929 162V154.364H264.062V155.517H264.142C264.281 155.139 264.533 154.833 264.897 154.597C265.262 154.362 265.673 154.244 266.13 154.244C266.217 154.244 266.324 154.246 266.453 154.249C266.583 154.253 266.681 154.258 266.747 154.264V155.457C266.707 155.447 266.616 155.433 266.473 155.413C266.334 155.389 266.187 155.378 266.031 155.378C265.66 155.378 265.328 155.456 265.037 155.612C264.748 155.764 264.52 155.976 264.351 156.248C264.185 156.516 264.102 156.823 264.102 157.168V162H262.929ZM267.858 162V154.364H269.031V162H267.858ZM268.454 153.091C268.226 153.091 268.028 153.013 267.863 152.857C267.7 152.701 267.619 152.514 267.619 152.295C267.619 152.077 267.7 151.889 267.863 151.734C268.028 151.578 268.226 151.5 268.454 151.5C268.683 151.5 268.878 151.578 269.041 151.734C269.207 151.889 269.289 152.077 269.289 152.295C269.289 152.514 269.207 152.701 269.041 152.857C268.878 153.013 268.683 153.091 268.454 153.091Z" fill="#667080"/>
<path d="M202.676 152.912V151.818H210.312V152.912H207.111V162H205.878V152.912H202.676ZM212.95 157.406V162H211.776V151.818H212.95V155.557H213.049C213.228 155.162 213.496 154.849 213.854 154.617C214.216 154.382 214.696 154.264 215.296 154.264C215.817 154.264 216.272 154.369 216.663 154.577C217.054 154.783 217.358 155.099 217.573 155.527C217.792 155.951 217.901 156.491 217.901 157.148V162H216.728V157.227C216.728 156.621 216.571 156.152 216.256 155.82C215.944 155.486 215.512 155.318 214.958 155.318C214.574 155.318 214.229 155.399 213.924 155.562C213.622 155.724 213.384 155.961 213.208 156.273C213.036 156.584 212.95 156.962 212.95 157.406ZM224.58 158.878V154.364H225.754V162H224.58V160.707H224.501C224.322 161.095 224.043 161.425 223.665 161.697C223.288 161.965 222.81 162.099 222.234 162.099C221.756 162.099 221.332 161.995 220.961 161.786C220.59 161.574 220.298 161.256 220.086 160.832C219.874 160.404 219.768 159.866 219.768 159.216V154.364H220.941V159.136C220.941 159.693 221.097 160.137 221.408 160.469C221.723 160.8 222.124 160.966 222.612 160.966C222.903 160.966 223.2 160.891 223.501 160.742C223.806 160.593 224.062 160.364 224.267 160.056C224.476 159.748 224.58 159.355 224.58 158.878ZM227.623 162V154.364H228.756V155.517H228.836C228.975 155.139 229.227 154.833 229.591 154.597C229.956 154.362 230.367 154.244 230.824 154.244C230.91 154.244 231.018 154.246 231.147 154.249C231.277 154.253 231.374 154.258 231.441 154.264V155.457C231.401 155.447 231.31 155.433 231.167 155.413C231.028 155.389 230.881 155.378 230.725 155.378C230.354 155.378 230.022 155.456 229.73 155.612C229.442 155.764 229.213 155.976 229.044 156.248C228.879 156.516 228.796 156.823 228.796 157.168V162H227.623ZM237.961 156.074L236.907 156.372C236.84 156.196 236.743 156.026 236.613 155.86C236.487 155.691 236.315 155.552 236.096 155.442C235.878 155.333 235.597 155.278 235.256 155.278C234.789 155.278 234.399 155.386 234.088 155.602C233.78 155.814 233.625 156.084 233.625 156.412C233.625 156.704 233.731 156.934 233.944 157.103C234.156 157.272 234.487 157.413 234.938 157.526L236.071 157.804C236.754 157.97 237.263 158.223 237.598 158.565C237.932 158.903 238.1 159.339 238.1 159.872C238.1 160.31 237.974 160.701 237.722 161.045C237.473 161.39 237.125 161.662 236.678 161.861C236.23 162.06 235.71 162.159 235.117 162.159C234.338 162.159 233.693 161.99 233.183 161.652C232.672 161.314 232.349 160.82 232.213 160.17L233.327 159.892C233.433 160.303 233.634 160.611 233.929 160.817C234.227 161.022 234.616 161.125 235.097 161.125C235.644 161.125 236.078 161.009 236.4 160.777C236.724 160.542 236.887 160.26 236.887 159.932C236.887 159.667 236.794 159.445 236.608 159.266C236.423 159.083 236.138 158.947 235.753 158.858L234.48 158.56C233.781 158.394 233.267 158.137 232.939 157.789C232.614 157.438 232.452 156.999 232.452 156.472C232.452 156.041 232.573 155.66 232.815 155.328C233.06 154.997 233.393 154.737 233.814 154.548C234.239 154.359 234.719 154.264 235.256 154.264C236.012 154.264 236.605 154.43 237.036 154.761C237.47 155.093 237.778 155.53 237.961 156.074Z" fill="#667080"/>
<path d="M160.082 162L157.298 151.818H158.551L160.679 160.111H160.778L162.946 151.818H164.338L166.506 160.111H166.605L168.733 151.818H169.986L167.202 162H165.929L163.682 153.886H163.602L161.355 162H160.082ZM173.574 162.159C172.838 162.159 172.203 161.997 171.67 161.672C171.139 161.344 170.73 160.886 170.442 160.3C170.157 159.71 170.014 159.024 170.014 158.241C170.014 157.459 170.157 156.77 170.442 156.173C170.73 155.573 171.131 155.106 171.645 154.771C172.162 154.433 172.765 154.264 173.454 154.264C173.852 154.264 174.245 154.33 174.633 154.463C175.02 154.596 175.373 154.811 175.692 155.109C176.01 155.404 176.263 155.795 176.452 156.283C176.641 156.77 176.736 157.37 176.736 158.082V158.58H170.849V157.565H175.542C175.542 157.134 175.456 156.75 175.284 156.412C175.115 156.074 174.873 155.807 174.558 155.612C174.247 155.416 173.879 155.318 173.454 155.318C172.987 155.318 172.583 155.434 172.241 155.666C171.903 155.895 171.643 156.193 171.461 156.561C171.278 156.929 171.187 157.323 171.187 157.744V158.42C171.187 158.997 171.287 159.486 171.486 159.887C171.688 160.285 171.968 160.588 172.326 160.797C172.684 161.002 173.1 161.105 173.574 161.105C173.882 161.105 174.16 161.062 174.409 160.976C174.661 160.886 174.878 160.754 175.06 160.578C175.242 160.399 175.383 160.177 175.483 159.912L176.616 160.23C176.497 160.615 176.296 160.953 176.015 161.244C175.733 161.533 175.385 161.758 174.971 161.92C174.556 162.08 174.091 162.159 173.574 162.159ZM181.124 162.159C180.488 162.159 179.926 161.998 179.439 161.677C178.951 161.352 178.57 160.895 178.295 160.305C178.02 159.711 177.882 159.01 177.882 158.202C177.882 157.4 178.02 156.704 178.295 156.114C178.57 155.524 178.953 155.068 179.444 154.746C179.934 154.425 180.501 154.264 181.144 154.264C181.641 154.264 182.034 154.347 182.322 154.513C182.614 154.675 182.836 154.861 182.988 155.07C183.144 155.275 183.265 155.444 183.351 155.577H183.451V151.818H184.624V162H183.49V160.827H183.351C183.265 160.966 183.142 161.142 182.983 161.354C182.824 161.562 182.597 161.75 182.302 161.915C182.007 162.078 181.614 162.159 181.124 162.159ZM181.283 161.105C181.754 161.105 182.151 160.982 182.476 160.737C182.801 160.489 183.048 160.146 183.217 159.708C183.386 159.267 183.471 158.759 183.471 158.182C183.471 157.612 183.388 157.113 183.222 156.685C183.056 156.254 182.811 155.92 182.486 155.681C182.161 155.439 181.76 155.318 181.283 155.318C180.786 155.318 180.372 155.446 180.04 155.701C179.712 155.953 179.465 156.296 179.299 156.73C179.137 157.161 179.056 157.645 179.056 158.182C179.056 158.725 179.139 159.219 179.304 159.663C179.473 160.104 179.722 160.455 180.05 160.717C180.382 160.976 180.793 161.105 181.283 161.105Z" fill="#667080"/>
<path d="M117.676 152.912V151.818H125.312V152.912H122.111V162H120.878V152.912H117.676ZM130.55 158.878V154.364H131.723V162H130.55V160.707H130.47C130.291 161.095 130.013 161.425 129.635 161.697C129.257 161.965 128.78 162.099 128.203 162.099C127.726 162.099 127.302 161.995 126.93 161.786C126.559 161.574 126.268 161.256 126.055 160.832C125.843 160.404 125.737 159.866 125.737 159.216V154.364H126.911V159.136C126.911 159.693 127.066 160.137 127.378 160.469C127.693 160.8 128.094 160.966 128.581 160.966C128.873 160.966 129.169 160.891 129.471 160.742C129.776 160.593 130.031 160.364 130.237 160.056C130.445 159.748 130.55 159.355 130.55 158.878ZM136.794 162.159C136.058 162.159 135.423 161.997 134.89 161.672C134.359 161.344 133.95 160.886 133.662 160.3C133.377 159.71 133.234 159.024 133.234 158.241C133.234 157.459 133.377 156.77 133.662 156.173C133.95 155.573 134.351 155.106 134.865 154.771C135.382 154.433 135.985 154.264 136.674 154.264C137.072 154.264 137.465 154.33 137.853 154.463C138.24 154.596 138.593 154.811 138.912 155.109C139.23 155.404 139.483 155.795 139.672 156.283C139.861 156.77 139.956 157.37 139.956 158.082V158.58H134.069V157.565H138.762C138.762 157.134 138.676 156.75 138.504 156.412C138.335 156.074 138.093 155.807 137.778 155.612C137.467 155.416 137.099 155.318 136.674 155.318C136.207 155.318 135.803 155.434 135.461 155.666C135.123 155.895 134.863 156.193 134.681 156.561C134.498 156.929 134.407 157.323 134.407 157.744V158.42C134.407 158.997 134.507 159.486 134.706 159.887C134.908 160.285 135.188 160.588 135.546 160.797C135.904 161.002 136.32 161.105 136.794 161.105C137.102 161.105 137.38 161.062 137.629 160.976C137.881 160.886 138.098 160.754 138.28 160.578C138.462 160.399 138.603 160.177 138.703 159.912L139.836 160.23C139.717 160.615 139.516 160.953 139.235 161.244C138.953 161.533 138.605 161.758 138.191 161.92C137.776 162.08 137.311 162.159 136.794 162.159ZM146.87 156.074L145.816 156.372C145.749 156.196 145.651 156.026 145.522 155.86C145.396 155.691 145.224 155.552 145.005 155.442C144.786 155.333 144.506 155.278 144.165 155.278C143.698 155.278 143.308 155.386 142.997 155.602C142.688 155.814 142.534 156.084 142.534 156.412C142.534 156.704 142.64 156.934 142.852 157.103C143.065 157.272 143.396 157.413 143.847 157.526L144.98 157.804C145.663 157.97 146.172 158.223 146.507 158.565C146.841 158.903 147.009 159.339 147.009 159.872C147.009 160.31 146.883 160.701 146.631 161.045C146.382 161.39 146.034 161.662 145.587 161.861C145.139 162.06 144.619 162.159 144.026 162.159C143.247 162.159 142.602 161.99 142.092 161.652C141.581 161.314 141.258 160.82 141.122 160.17L142.236 159.892C142.342 160.303 142.543 160.611 142.838 160.817C143.136 161.022 143.525 161.125 144.006 161.125C144.553 161.125 144.987 161.009 145.308 160.777C145.633 160.542 145.796 160.26 145.796 159.932C145.796 159.667 145.703 159.445 145.517 159.266C145.332 159.083 145.047 158.947 144.662 158.858L143.389 158.56C142.69 158.394 142.176 158.137 141.848 157.789C141.523 157.438 141.361 156.999 141.361 156.472C141.361 156.041 141.482 155.66 141.724 155.328C141.969 154.997 142.302 154.737 142.723 154.548C143.147 154.359 143.628 154.264 144.165 154.264C144.921 154.264 145.514 154.43 145.945 154.761C146.379 155.093 146.687 155.53 146.87 156.074Z" fill="#667080"/>
<path d="M78.233 151.818H79.7045L83.1648 160.27H83.2841L86.7443 151.818H88.2159V162H87.0625V154.264H86.9631L83.7812 162H82.6676L79.4858 154.264H79.3864V162H78.233V151.818ZM93.3512 162.159C92.6618 162.159 92.0569 161.995 91.5366 161.667C91.0195 161.339 90.6152 160.88 90.3235 160.29C90.0352 159.7 89.891 159.01 89.891 158.222C89.891 157.426 90.0352 156.732 90.3235 156.138C90.6152 155.545 91.0195 155.085 91.5366 154.756C92.0569 154.428 92.6618 154.264 93.3512 154.264C94.0406 154.264 94.6438 154.428 95.1609 154.756C95.6812 155.085 96.0856 155.545 96.3739 156.138C96.6656 156.732 96.8114 157.426 96.8114 158.222C96.8114 159.01 96.6656 159.7 96.3739 160.29C96.0856 160.88 95.6812 161.339 95.1609 161.667C94.6438 161.995 94.0406 162.159 93.3512 162.159ZM93.3512 161.105C93.8749 161.105 94.3058 160.971 94.6438 160.702C94.9819 160.434 95.2321 160.081 95.3945 159.643C95.5569 159.206 95.6381 158.732 95.6381 158.222C95.6381 157.711 95.5569 157.236 95.3945 156.795C95.2321 156.354 94.9819 155.998 94.6438 155.726C94.3058 155.454 93.8749 155.318 93.3512 155.318C92.8275 155.318 92.3967 155.454 92.0586 155.726C91.7205 155.998 91.4703 156.354 91.3079 156.795C91.1455 157.236 91.0643 157.711 91.0643 158.222C91.0643 158.732 91.1455 159.206 91.3079 159.643C91.4703 160.081 91.7205 160.434 92.0586 160.702C92.3967 160.971 92.8275 161.105 93.3512 161.105ZM99.4958 157.406V162H98.3225V154.364H99.456V155.557H99.5554C99.7344 155.169 100.006 154.857 100.371 154.622C100.735 154.384 101.206 154.264 101.783 154.264C102.3 154.264 102.752 154.37 103.14 154.582C103.528 154.791 103.829 155.109 104.045 155.537C104.26 155.961 104.368 156.498 104.368 157.148V162H103.195V157.227C103.195 156.627 103.039 156.16 102.727 155.825C102.416 155.487 101.988 155.318 101.445 155.318C101.07 155.318 100.735 155.399 100.44 155.562C100.149 155.724 99.9183 155.961 99.7493 156.273C99.5803 156.584 99.4958 156.962 99.4958 157.406Z" fill="#667080"/>
<circle cx="56.5" cy="120.5" r="2.5" fill="#667080"/>
<circle cx="138.5" cy="40.5" r="2.5" fill="#667080"/>
<circle cx="175.5" cy="13.5" r="2.5" fill="#667080"/>
<circle cx="220.5" cy="13.5" r="2.5" fill="#667080"/>
<circle cx="261.5" cy="40.5" r="2.5" fill="#667080"/>
<circle cx="95.5" cy="69.5" r="2.5" fill="#667080"/>
<circle cx="293.5" cy="40.5" r="2.5" fill="#667080"/>
<rect y="111" width="30" height="20" rx="10" fill="#D9D9D9"/>
<path d="M21.5 123.5C21.5 126.5 17 127 15 127C13 127 8.5 126.5 8.5 123.5C8.5 120.5 12 122.5 15 122.5C18 122.5 21.5 120.5 21.5 123.5Z" fill="#1E1E1E" stroke="#1E1E1E"/>
<path d="M3 119C3 116.333 7 116.333 7 119" stroke="#1E1E1E"/>
<path d="M23 119C23 116.333 27 116.333 27 119" stroke="#1E1E1E"/>
<rect y="86" width="30" height="20" rx="10" fill="#D9D9D9"/>
<circle cx="5" cy="94" r="2" fill="#1E1E1E"/>
<circle cx="25" cy="94" r="2" fill="#1E1E1E"/>
<path d="M12 99C12 103.078 18 102.921 18 99" stroke="#1E1E1E" stroke-linecap="round"/>
<rect y="61" width="30" height="20" rx="10" fill="#D9D9D9"/>
<path d="M3 68L7 69L3 70M27 68L23 69L27 70" stroke="#1E1E1E" stroke-linecap="round" stroke-linejoin="round"/>
<path d="M12 75.5C12 74 13.5 74 14 75C14.5 76 15.5 76 16 75C16.4472 74.1056 18 74 18 75.5" stroke="#1E1E1E" stroke-linecap="round"/>
<rect y="35" width="30" height="20" rx="10" fill="#D9D9D9"/>
<path d="M18 51C18 46.922 12 47.0788 12 51" stroke="#1E1E1E" stroke-linecap="round"/>
<path d="M3 43.5C4 43 5.66667 42.5 7 42.5M27 43.5C26 43 24.3333 42.5 23 42.5" stroke="#1E1E1E" stroke-linecap="round"/>
<rect y="8" width="30" height="20" rx="10" fill="#D9D9D9"/>
<path d="M7 16.5C7 17.3284 6.32843 17 5.5 17C4.67157 17 4 17.3284 4 16.5C4 15.6716 4.67157 15 5.5 15C6.32843 15 7 15.6716 7 16.5Z" fill="#1E1E1E"/>
<path d="M26 16.5C26 17.3284 25.3284 17 24.5 17C23.6716 17 23 17.3284 23 16.5C23 15.6716 23.6716 15 24.5 15C25.3284 15 26 15.6716 26 16.5Z" fill="#1E1E1E"/>
<path d="M18 24C18 19.922 12 20.0788 12 24" stroke="#1E1E1E" stroke-linecap="round"/>
<path d="M3 14.5L7.5 15.5M22.5 15.5L27 14.5" stroke="#1E1E1E" stroke-linecap="round" stroke-linejoin="round"/>
</svg>
