<svg width="120" height="120" viewBox="0 0 120 120" fill="none" xmlns="http://www.w3.org/2000/svg">
<ellipse cx="60.0258" cy="60.0057" rx="59.9743" ry="59.9943" fill="#667080"/>
<path d="M120 60.0057C120 50.5316 117.757 41.1921 113.455 32.752C109.152 24.3118 102.913 17.0109 95.2472 11.447C87.5815 5.8831 78.7075 2.21435 69.3518 0.741126C59.996 -0.732097 50.4245 0.032091 41.4208 2.97113C32.417 5.91016 24.2371 10.9405 17.5507 17.6503C10.8643 24.36 5.86152 32.5585 2.95188 41.5745C0.0422514 50.5904 -0.691479 60.1675 0.810761 69.5217C2.313 78.8759 6.0085 87.7412 11.5947 95.3919L60.0258 60.0057H120Z" fill="#BAC0CA"/>
<path d="M119.949 59.9943C119.949 52.1158 118.397 44.3144 115.383 37.0355C112.369 29.7567 107.952 23.1429 102.383 17.5719C96.8134 12.0009 90.2019 7.58179 82.9255 4.5668C75.649 1.5518 67.8502 -3.44383e-07 59.9743 0L59.9743 59.9943H119.949Z" fill="#D9D9D9"/>
<ellipse cx="60" cy="60.0201" rx="36" ry="36.012" fill="#EEF1F4"/>
</svg>
