<svg width="60" height="60" viewBox="0 0 60 60" fill="none" xmlns="http://www.w3.org/2000/svg">
<circle cx="30" cy="30" r="30" fill="#667080"/>
<path d="M42 43.5V40.5C42 38.9087 41.3679 37.3826 40.2426 36.2574C39.1174 35.1321 37.5913 34.5 36 34.5H24C22.4087 34.5 20.8826 35.1321 19.7574 36.2574C18.6321 37.3826 18 38.9087 18 40.5V43.5" stroke="#EEF1F4" stroke-width="2" stroke-linecap="round" stroke-linejoin="round"/>
<path d="M30 28.5C33.3137 28.5 36 25.8137 36 22.5C36 19.1863 33.3137 16.5 30 16.5C26.6863 16.5 24 19.1863 24 22.5C24 25.8137 26.6863 28.5 30 28.5Z" stroke="#EEF1F4" stroke-width="2" stroke-linecap="round" stroke-linejoin="round"/>
</svg>
